<?xml version="1.0" encoding="utf-8"?>
<!-- Svg Vector Icons : http://www.onlinewebfonts.com/icon -->
<!DOCTYPE svg PUBLIC "-//W3C//DTD SVG 1.1//EN" "http://www.w3.org/Graphics/SVG/1.1/DTD/svg11.dtd">
<svg version="1.1" xmlns="http://www.w3.org/2000/svg" xmlns:xlink="http://www.w3.org/1999/xlink" x="0px" y="0px" viewBox="0 0 1000 1000" enable-background="new 0 0 1000 1000" xml:space="preserve">
<metadata> Svg Vector Icons : http://www.onlinewebfonts.com/icon </metadata>
<g><g transform="translate(0.000000,511.000000) scale(0.100000,-0.100000)"><path d="M4090.8,4985.6c-87.4-40.2-165.3-122.8-198.4-210.2c-16.5-40.2-26-271.6-26-569.1v-503l-96.8-28.3c-54.3-16.5-196-70.8-314.1-122.8l-212.5-92.1l-356.6,351.9c-193.6,193.6-377.8,363.7-406.2,377.8c-73.2,37.8-233.8,33.1-323.5-9.4c-99.2-47.2-1209.1-1161.8-1239.8-1246.8c-33.1-87.4-33.1-240.9,0-307c14.2-28.3,184.2-212.5,377.8-406.2l351.9-356.6l-92.1-212.5c-52-118.1-106.3-259.8-122.8-311.7l-28.3-96.8l-538.4-7.1c-590.4-7.1-597.4-9.4-715.5-170c-47.2-63.8-49.6-92.1-49.6-958.8c0-866.7,2.4-895,49.6-958.8c118.1-160.6,125.2-162.9,715.5-170l538.4-7.1l28.3-96.8c16.5-52,70.8-193.6,122.8-311.7l92.1-212.5l-351.9-356.6c-193.6-193.6-363.7-377.8-377.8-406.2c-37.8-73.2-33.1-233.8,9.4-323.5c47.2-99.2,1161.8-1209,1246.8-1239.8c87.4-33,240.9-33,307,0c28.3,14.2,212.5,184.2,408.5,380.2l354.2,351.8l214.9-94.5c115.7-49.6,257.4-106.3,309.3-122.8l96.8-28.3l7.1-538.4c7.1-590.4,9.4-597.5,170-715.5c63.8-47.2,92.1-49.6,958.8-49.6c866.7,0,895,2.3,958.7,49.6c160.6,118.1,162.9,125.2,170,715.5l7.1,538.4l99.2,30.7c54.3,14.2,193.6,70.8,307,125.1l207.8,94.5l358.9-354.2c198.4-196,382.6-368.4,410.9-382.6c77.9-40.1,236.1-30.7,332.9,18.9c111,59,1197.3,1150,1230.3,1237.4c33,87.4,33,240.9,0,307c-14.2,28.3-186.6,212.5-382.6,410.9L8346.2-1643l94.5,207.8c54.3,113.3,111,252.7,125.1,307l30.7,99.2l538.4,7.1c590.4,7.1,597.5,9.4,715.5,170c47.2,63.8,49.6,92.1,49.6,958.8c0,866.7-2.4,895-49.6,958.8c-118.1,160.6-125.2,162.9-715.5,170l-538.4,7.1l-28.3,96.8c-16.5,51.9-73.2,193.6-122.8,309.3l-94.5,214.9l351.8,354.2c196,196,366,380.2,380.2,408.5c33,66.1,33,219.6,0,307c-30.7,85-1140.6,1199.6-1239.8,1246.8c-89.7,42.5-250.3,47.2-323.5,9.4c-28.3-14.2-212.5-184.2-408.5-380.2l-354.2-351.9l-214.9,94.5c-115.7,49.6-257.4,106.3-309.3,122.8l-96.8,28.3l-7.1,538.4c-7.1,590.4-9.4,597.4-170,715.5c-61.4,47.2-96.8,49.6-930.4,54.3C4341.2,5016.3,4147.5,5011.6,4090.8,4985.6z M5377.8,3802.5c0-644.7,14.2-668.3,453.4-793.4c226.7-66.1,519.5-193.6,774.6-340c113.3-63.8,236.2-75.6,347.1-33.1c35.4,14.2,212.5,170,392,347.1l323.5,321.2l264.5-264.5l264.5-264.5l-321.2-323.5c-177.1-179.5-332.9-356.6-347.1-392c-42.5-111-30.7-233.8,33.1-347.1c139.3-245.6,276.3-557.3,340.1-779.3c82.6-283.4,115.7-337.7,238.5-401.4c82.6-42.5,139.3-47.2,554.9-47.2h460.5V106.8V-271h-460.5c-642.3,0-668.3-14.2-793.4-448.7c-63.8-222-200.7-533.7-340.1-779.3c-63.8-113.3-75.6-236.1-33.1-347.1c14.2-35.4,170-212.5,347.1-392l321.2-323.5l-264.5-264.5l-264.5-264.5l-323.5,321.2c-179.5,177.1-356.6,332.9-392,347.1c-111,42.5-233.8,30.7-347.1-33c-245.6-139.3-557.3-276.3-779.3-340.1c-283.4-82.6-337.7-115.7-401.4-238.5c-42.5-82.7-47.2-139.3-47.2-554.9v-460.5H5000h-377.8v460.5c0,642.3-14.2,668.3-448.7,793.4c-222,63.8-533.7,200.7-779.3,340.1c-113.3,63.8-236.1,75.6-347.1,33c-35.4-14.2-212.5-170-392-347.1l-323.5-321.2l-264.5,264.5l-264.5,264.5l321.2,323.5c177.1,179.5,333,356.6,347.1,392c42.5,111,30.7,233.8-33.1,347.1c-146.4,255-273.9,547.9-340,774.6c-82.6,288.1-113.4,342.4-238.5,406.2c-82.7,42.5-139.3,47.2-554.9,47.2H843.9v377.8v377.8h460.5c644.7,0,668.3,14.2,793.4,453.4c66.1,226.7,193.6,519.5,340,774.6c63.8,113.3,75.6,236.1,33.1,347.1c-14.2,35.4-170,212.5-347.1,392l-321.2,323.5l264.5,264.5l264.5,264.5l323.5-321.2c179.5-177.1,356.6-333,392-347.1c111-42.5,233.8-30.7,347.1,33.1c255,146.4,547.9,273.9,774.5,340c288.1,82.7,342.4,113.4,406.2,238.5c42.5,82.7,47.2,139.3,47.2,554.9V4263H5000h377.8V3802.5z"/><path d="M4605.6,2340.8c-481.7-92.1-864.3-295.2-1211.4-649.4c-304.6-307-500.6-656.5-606.9-1079.2c-56.7-224.3-56.7-786.4,0-1010.7c111-439.2,302.3-776.9,630.5-1100.4c314.1-311.7,647-498.3,1076.8-606.9c224.3-56.7,786.4-56.7,1010.7,0c436.9,108.6,765.1,295.2,1088.6,618.7c323.5,323.5,510.1,651.7,618.7,1088.6c56.7,224.3,56.7,786.4,0,1010.7c-106.3,422.7-302.3,772.2-606.9,1079.2c-307,314.1-637.6,505.3-1060.3,614C5311.7,2369.1,4841.8,2385.6,4605.6,2340.8z M5318.8,1582.7c859.6-179.5,1400.3-1124,1114.6-1945.8c-85-240.9-191.3-410.9-370.7-592.7c-597.4-597.4-1523.1-597.4-2127.7,0c-595.1,588-595.1,1532.6,0,2127.7C4303.4,1537.9,4808.7,1689,5318.8,1582.7z"/></g></g>
</svg>